HIERARCHY
ROOT Hips
{
  OFFSET 263.056 91.6644 -274.608
  CHANNELS 6 Xposition Yposition Zposition Zrotation Xrotation Yrotation
  JOINT LeftUpLeg
  {
    OFFSET 8.64259 1.95398 -2.38835
    CHANNELS 3 Zrotation Xrotation Yrotation
    JOINT LeftLeg
    {
      OFFSET 43.7702 0 0
      CHANNELS 3 Zrotation Xrotation Yrotation
      JOINT LeftFoot
      {
        OFFSET 40.6238 0 0
        CHANNELS 3 Zrotation Xrotation Yrotation
        JOINT LeftToeBase
        {
          OFFSET 12.7242 0 0
          CHANNELS 3 Zrotation Xrotation Yrotation
          End Site
          {
            OFFSET 0 0 0
          }
        }
      }
    }
  }
  JOINT RightUpLeg
  {
    OFFSET -8.2249 1.95398 -2.59336
    CHANNELS 3 Zrotation Xrotation Yrotation
    JOINT RightLeg
    {
      OFFSET 43.5653 0 0
      CHANNELS 3 Zrotation Xrotation Yrotation
      JOINT RightFoot
      {
        OFFSET 40.6238 0 0
        CHANNELS 3 Zrotation Xrotation Yrotation
        JOINT RightToeBase
        {
          OFFSET 12.7242 0 0
          CHANNELS 3 Zrotation Xrotation Yrotation
          End Site
          {
            OFFSET 0 0 0
          }
        }
      }
    }
  }
  JOINT Spine
  {
    OFFSET 0.165834 0.87714 6.61349
    CHANNELS 3 Zrotation Xrotation Yrotation
    JOINT Spine1
    {
      OFFSET 7.38963 1.71661e-005 0
      CHANNELS 3 Zrotation Xrotation Yrotation
      JOINT Spine2
      {
        OFFSET 11.9445 1.14441e-005 0
        CHANNELS 3 Zrotation Xrotation Yrotation
        JOINT Spine3
        {
          OFFSET 14.7254 4.19617e-005 0
          CHANNELS 3 Zrotation Xrotation Yrotation
          JOINT Spine4
          {
            OFFSET 10.9679 0 0
            CHANNELS 3 Zrotation Xrotation Yrotation
            JOINT RightShoulder
            {
              OFFSET 2.46616 -1.6653 3.69651
              CHANNELS 3 Zrotation Xrotation Yrotation
              JOINT RightArm
              {
                OFFSET 13.0012 0 0
                CHANNELS 3 Zrotation Xrotation Yrotation
                JOINT RightForeArm
                {
                  OFFSET 28.7848 1.52588e-005 0
                  CHANNELS 3 Zrotation Xrotation Yrotation
                  JOINT RightHand
                  {
                    OFFSET 26.5688 1.52588e-005 0
                    CHANNELS 3 Zrotation Xrotation Yrotation
                    End Site
                    {
                      OFFSET 0 0 0
                    }
                  }
                }
              }
            }
            JOINT LeftShoulder
            {
              OFFSET 2.38034 -1.29275 -3.7523
              CHANNELS 3 Zrotation Xrotation Yrotation
              JOINT LeftArm
              {
                OFFSET 16.3182 6.10352e-005 0
                CHANNELS 3 Zrotation Xrotation Yrotation
                JOINT LeftForeArm
                {
                  OFFSET 27.0901 0 0
                  CHANNELS 3 Zrotation Xrotation Yrotation
                  JOINT LeftHand
                  {
                    OFFSET 24.5451 1.52588e-005 0
                    CHANNELS 3 Zrotation Xrotation Yrotation
                    End Site
                    {
                      OFFSET 0 0 0
                    }
                  }
                }
              }
            }
            JOINT Neck
            {
              OFFSET 5.0226 -0.0266342 0
              CHANNELS 3 Zrotation Xrotation Yrotation
              JOINT Head
              {
                OFFSET 6.69364 2.86102e-005 0
                CHANNELS 3 Zrotation Xrotation Yrotation
                End Site
                {
                  OFFSET 0 0 0
                }
              }
            }
          }
        }
      }
    }
  }
}
MOTION
Frames: 5
Frame Time: 0.0416667
-54.662840324425936 59.93553415437364 95.08780966584514 -3.406460584428155 -65.83018021144298 -4.359172007103508 -171.889 0.21041 92.0617 -15.9152 15.2627 -0.437272 51.0545 -5.76108 1.94557 36.3516 8.21291 -7.08351 176.661 3.21189 87.0509 -24.4347 0.784545 -2.76221 53.807 1.7159 1.45602 38.9271 0.82732 8.03517 0.12894 7.02304 -89.8985 12.8277 0.304716 0.166508 1.15676 0.311752 0.152926 -21.3785 0.240584 0.250392 -1.36588 0.240583 0.250381 73.5109 -51.1504 -124.775 0.221599 -15.7794 -32.7008 8.89329 -0.103393 -59.4891 -21.093 -0.980785 -0.115936 -109.155 -41.0465 46.3506 -7.99589 6.6485 -24.2406 -7.44062 -8.40934 -58.3837 22.7898 1.12086 1.06364 5.71641 2.60282 7.45913 11.8176 1.26975 1.05442
-54.69778118660522 59.43382034677852 93.86400347145872 -3.264947593158183 -64.57788558732474 -3.8738734157224006 -172.183 0.784698 91.7496 -15.3133 14.6723 -0.10718 54.6381 -2.38099 4.52771 40.4292 11.9417 -9.66499 176.974 2.93266 87.6876 -22.0102 1.81269 -2.62136 57.761 0.38914 0.426385 41.6472 1.24045 8.82419 0.0933894 7.05908 -89.9463 12.7556 0.211207 0.0822721 1.08468 0.214616 0.0728839 -21.4505 0.176706 0.141939 -1.4379 0.176714 0.141936 71.82 -52.6847 -126.401 -0.0549431 -17.2795 -27.8866 9.03765 -2.99735 -50.1777 -14.8325 -0.611623 -0.487383 -109.935 -41.5339 45.474 -7.9418 9.80624 -22.289 -5.97394 -7.39178 -46.3032 13.1759 0.265383 -1.91433 6.83507 2.51177 6.99204 12.3579 1.22846 1.23628
-54.818208969054346 59.06959281735385 92.35706405793752 -4.679712404754415 -63.10289298184932 -4.974896435111659 -172.692 1.97632 91.1681 -15.1272 13.6318 0.277358 57.6164 1.30586 7.34399 42.1233 13.3098 -11.3058 177.243 3.85498 88.1797 -21.0146 2.47928 -2.47183 63.6718 -1.4975 -0.809668 38.3632 0.794743 9.58638 0.111204 7.14836 -89.9512 12.5771 0.244188 0.0690069 0.90619 0.246996 0.0581918 -21.6291 0.212163 0.139217 -1.61646 0.212163 0.13921 71.509 -52.9254 -126.713 4.44175 -17.3459 -21.0773 7.58399 -7.19821 -39.7869 -9.34089 -0.551229 1.58823 -111.178 -41.8601 43.8428 -8.0165 14.4406 -18.9403 -4.30941 -0.585012 -32.5246 9.86872 0.202514 -1.63766 8.3895 2.28775 6.349 13.2997 1.06302 1.26314
-54.93575157723785 59.43922731344118 90.91783833048414 -6.971911477199972 -62.026109931896 -6.6389949144545675 -172.535 2.96487 91.1371 -13.9455 12.5308 0.0743303 58.316 2.97203 10.094 42.9111 13.7043 -13.7335 177.975 5.14141 88.9865 -19.974 3.62568 -2.57358 65.4004 -2.03762 -1.10738 35.9343 0.439672 11.1725 0.162107 7.3477 -90.0047 12.1786 0.320046 -0.0448091 0.507635 0.317767 -0.0588573 -22.0278 0.318712 0.053452 -2.01517 0.318712 0.0534463 70.9387 -54.0634 -126.938 9.18078 -15.9066 -11.1327 6.72003 -12.4016 -30.3193 -9.99027 -0.831839 4.45994 -113.076 -42.3341 41.3839 -13.4514 15.8481 -11.6559 -3.62142 10.2209 -21.4082 11.8575 0.92106 3.64614 9.42529 2.20094 6.76464 14.9463 0.810983 1.06671
-55.0271875813877 60.048604959191195 89.59316528704844 -8.33754701925973 -59.85835781727682 -7.450127186132091 -172.743 5.82708 91.0225 -14.0663 9.67819 0.225666 59.6962 3.55761 9.09764 39.9778 11.0758 -14.726 178.644 7.46756 89.522 -18.7038 3.52633 -2.55488 65.5908 -2.15839 -1.16786 34.4745 0.200384 11.9157 0.0998149 7.48449 -90.0122 11.9049 0.192751 -0.0454766 0.234007 0.190558 -0.0539236 -22.3013 0.197499 0.0145463 -2.28861 0.197505 0.0145554 72.2359 -54.4857 -124.967 14.3838 -14.157 0.739538 4.09894 -16.5398 -27.1386 -7.92278 -0.845907 7.00109 -111.264 -42.9822 44.3667 -22.0456 15.6898 -0.546857 -3.11233 13.158 -19.2144 12.4944 1.11516 4.76537 10.9961 2.68642 6.407 16.8065 1.32197 1.24904
